<svg width="71" height="70" viewBox="0 0 71 70" fill="none" xmlns="http://www.w3.org/2000/svg">
<path fill-rule="evenodd" clip-rule="evenodd" d="M57.6539 31.7882C58.8572 37.5261 58.9304 42.5553 56.0657 49.03C56.0412 49.0853 56.0165 49.1408 55.9916 49.1964C55.4023 50.5106 54.5486 51.9485 53.4659 53.3751C52.6732 54.4198 51.7578 55.4582 50.7337 56.4377C48.617 58.462 46.0364 60.2345 43.1148 61.2877C42.23 61.6066 41.3141 61.8597 40.3703 62.0338C39.4103 62.2109 38.4214 62.3062 37.4074 62.3062C16.7506 62.3062 12.5408 49.1287 12.7258 40.0033C12.7456 39.0258 12.8158 38.0947 12.9217 37.2313C13.3912 33.402 14.2692 30.9876 14.9907 29.0041C15.586 27.3674 16.0746 26.0238 16.1391 24.4205L16.1392 24.4185C16.1413 24.3647 16.143 24.3106 16.1442 24.2563L16.1442 24.2543C16.161 23.4765 16.0777 22.6346 15.8593 21.6675C15.8158 21.4742 15.813 21.2816 15.8477 21.1024C15.9168 20.7453 16.1349 20.4413 16.4775 20.2903C16.8106 20.1435 17.2613 20.1412 17.807 20.3751C18.2021 20.5443 18.595 20.7398 18.985 20.9616L18.989 20.9639C19.3872 21.1906 19.7822 21.4447 20.1731 21.7264C20.2307 21.768 20.2883 21.8101 20.3458 21.8529C20.9339 22.2903 21.5121 22.7906 22.0772 23.354C23.1397 24.4135 24.1553 25.6962 25.1016 27.2045C25.7143 25.5191 26.6054 24.2623 27.6514 23.1711C28.4905 22.2957 29.4291 21.5268 30.4033 20.7289L30.405 20.7275C31.577 19.7676 32.8002 18.7655 33.9637 17.4849C35.4134 15.8908 36.2403 14.442 36.7766 12.9684C37.2014 11.8013 37.4437 10.6189 37.6685 9.3363C37.7297 8.98702 37.8472 8.68922 38.0055 8.44697C38.1989 8.15088 38.4531 7.93768 38.7397 7.81528C39.1133 7.6557 39.542 7.65014 39.9628 7.81528C40.0718 7.85812 40.1791 7.9111 40.2849 7.97594C40.4739 8.09183 40.658 8.24559 40.8385 8.44697C42.5916 10.4036 43.5725 11.7847 44.6186 13.5325C44.6697 13.618 44.7211 13.7044 44.7726 13.7917C46.4344 16.6062 47.6171 19.6135 48.2521 22.7495C48.5924 24.4304 48.7754 26.1483 48.7904 27.8934C48.8036 29.4311 48.6865 30.9899 48.4316 32.5631C50.3375 32.1542 51.7781 31.4021 52.8676 30.4926C52.8867 30.4767 52.9056 30.4608 52.9244 30.4448C52.9812 30.3965 53.0371 30.3478 53.092 30.2987C53.2814 30.1293 53.4595 29.9551 53.6269 29.7773C53.6946 29.7054 53.7605 29.6329 53.8247 29.5598L53.8255 29.559C54.1566 29.1824 54.4425 28.7919 54.6895 28.3976C55.2686 27.473 56.6762 27.7097 56.945 28.7655C57.0511 29.1825 57.1533 29.5944 57.251 30.0019C57.3797 30.539 57.5006 31.0683 57.6123 31.5916C57.6264 31.6572 57.6402 31.7227 57.6539 31.7882ZM52.9169 24.1724C55.9541 22.401 60.2303 23.9368 61.1849 27.6861C63.1151 35.2742 63.997 42.0381 59.9836 50.9867C59.2436 52.637 58.2116 54.3591 56.9511 56.0199M52.9169 24.1724C52.8194 23.4029 52.6936 22.6389 52.5401 21.8813C51.8026 18.2388 50.4345 14.7759 48.5401 11.5674C47.296 9.4603 46.1386 7.80601 44.0969 5.52742C43.4062 4.75647 42.5631 4.13632 41.5629 3.74331L41.561 3.74254C40.1395 3.18476 38.5171 3.153 37.0215 3.79173M34.3425 6.05452C34.2433 6.2063 34.1516 6.36094 34.067 6.51791C33.7116 7.17742 33.4823 7.87811 33.3591 8.58084C33.1431 9.81302 32.9528 10.6824 32.6653 11.4721C32.3325 12.3867 31.8114 13.3488 30.7269 14.5413L30.7254 14.543C29.8083 15.5524 28.8263 16.3652 27.6313 17.344M37.0215 3.79173C35.8886 4.27561 34.9771 5.0831 34.3425 6.05452ZM24.7634 19.8644C25.6855 18.9356 26.62 18.1712 27.448 17.494C27.5097 17.4436 27.5708 17.3935 27.6313 17.344M24.7634 19.8644C23.1666 18.352 21.4157 17.1615 19.5306 16.3538ZM10.8791 27.5086C11.7421 25.136 11.9838 24.3676 11.5917 22.6313L11.5908 22.6272C11.1808 20.8036 11.64 18.5449 13.4615 17.0546C15.4096 15.4605 17.7975 15.6112 19.5306 16.3538M10.8791 27.5086L10.8765 27.5158C10.1224 29.5889 9.10932 32.3743 8.57916 36.6988M44.5987 65.4034C48.2081 64.1023 51.2963 61.9536 53.7577 59.5994C54.955 58.4544 56.0237 57.2419 56.9511 56.0199M44.5987 65.4034C42.383 66.2022 39.9699 66.6813 37.4074 66.6813C24.8284 66.6813 16.9004 62.1541 12.5264 55.524C8.34682 49.1884 7.96067 41.7425 8.57916 36.6988" fill="white"/>
<path d="M12.7258 40.0033C12.7456 39.0258 12.8158 38.0947 12.9217 37.2313C13.3912 33.402 14.2692 30.9876 14.9907 29.0041C15.586 27.3674 16.0746 26.0238 16.1391 24.4205L16.1392 24.4185C16.1413 24.3647 16.143 24.3106 16.1442 24.2563L16.1442 24.2543C16.161 23.4765 16.0777 22.6346 15.8593 21.6675C15.8158 21.4742 15.813 21.2816 15.8477 21.1024L10.8791 27.5086L8.57916 36.6988L12.7258 40.0033Z" fill="white"/>
<path d="M37.4074 62.3062C38.4214 62.3062 39.4103 62.2109 40.3703 62.0338L12.7258 40.0033C12.5408 49.1287 16.7506 62.3062 37.4074 62.3062Z" fill="white"/>
<path d="M17.807 20.3751C18.2021 20.5443 18.595 20.7398 18.985 20.9616L18.989 20.9639C19.3872 21.1906 19.7822 21.4447 20.1731 21.7264C20.2307 21.768 20.2883 21.8101 20.3458 21.8529C20.9339 22.2903 21.5121 22.7906 22.0772 23.354C23.1397 24.4135 24.1553 25.6962 25.1016 27.2045C25.7143 25.5191 26.6054 24.2623 27.6514 23.1711C28.4905 22.2957 29.4291 21.5268 30.4033 20.7289L30.405 20.7275C31.577 19.7676 32.8002 18.7655 33.9637 17.4849C35.4134 15.8908 36.2403 14.442 36.7766 12.9684C37.2014 11.8013 37.4437 10.6189 37.6685 9.3363C37.7297 8.98702 37.8472 8.68922 38.0055 8.44697C38.1989 8.15088 38.4531 7.93768 38.7397 7.81528C39.1133 7.6557 39.542 7.65014 39.9628 7.81528C40.0718 7.85812 40.1791 7.9111 40.2849 7.97594L37.0215 3.79173L34.3425 6.05452L34.067 6.51791C33.7116 7.17742 33.4823 7.87811 33.3591 8.58084C33.1431 9.81302 32.9528 10.6824 32.6653 11.4721C32.3325 12.3867 31.8114 13.3488 30.7269 14.5413L30.7254 14.543C29.8083 15.5524 28.8263 16.3652 27.6313 17.344L24.7634 19.8644L19.5306 16.3538L16.4775 20.2903C16.8106 20.1435 17.2613 20.1412 17.807 20.3751Z" fill="white"/>
<path d="M44.6186 13.5325C44.6697 13.618 44.7211 13.7044 44.7726 13.7917C46.4344 16.6062 47.6171 19.6135 48.2521 22.7495C48.5924 24.4304 48.7754 26.1483 48.7904 27.8934C48.8036 29.4311 48.6865 30.9899 48.4316 32.5631C50.3375 32.1542 51.7781 31.4021 52.8676 30.4926C52.8867 30.4767 52.9056 30.4608 52.9244 30.4448C52.9812 30.3965 53.0371 30.3478 53.092 30.2987C53.2814 30.1293 53.4595 29.9551 53.6269 29.7773L52.9169 24.1724L44.6186 13.5325Z" fill="white"/>
<path d="M56.0657 49.03C58.9304 42.5553 58.8572 37.5261 57.6539 31.7882C57.6402 31.7227 57.6264 31.6572 57.6123 31.5916C57.5006 31.0683 57.3797 30.539 57.251 30.0019C57.1533 29.5944 57.0511 29.1825 56.945 28.7655C56.6762 27.7097 55.2686 27.473 54.6895 28.3976C54.4425 28.7919 54.1566 29.1824 53.8255 29.559L53.8247 29.5598C53.7605 29.6329 53.6946 29.7054 53.6269 29.7773L56.0657 49.03Z" fill="white"/>
<path d="M55.9916 49.1964C55.4023 50.5106 54.5486 51.9485 53.4659 53.3751C52.6732 54.4198 51.7578 55.4582 50.7337 56.4377C48.617 58.462 46.0364 60.2345 43.1148 61.2877C42.23 61.6066 41.3141 61.8597 40.3703 62.0338L44.5987 65.4034L56.9511 56.0199L56.0657 49.03C56.0412 49.0853 56.0165 49.1408 55.9916 49.1964Z" fill="white"/>
<path d="M12.9252 37.2264C13.981 28.6138 17.101 27.1623 15.8596 21.6658C15.6453 20.7124 16.4188 19.7784 17.8073 20.3734C20.4212 21.4932 22.9423 23.7604 25.1019 27.2029C26.7975 22.5383 30.6271 21.1562 33.964 17.4834C36.5619 14.6264 37.1601 12.2365 37.6688 9.3347C37.9727 7.60067 39.6646 7.13358 40.8388 8.44531C46.9047 15.2087 49.8748 23.6546 48.4319 32.5615C51.6824 31.864 53.5797 30.1684 54.6898 28.3959C55.2689 27.4713 56.6766 27.7081 56.9453 28.7639C58.7593 35.8952 59.4312 41.526 55.9919 49.1947C53.5348 54.6752 46.4778 62.3045 37.4077 62.3045C14.539 62.3045 11.8279 46.1525 12.922 37.2296L12.9252 37.2264Z" fill="#FF6575"/>
<path d="M24.2908 35.4142C25.9609 36.3324 27.1191 37.5033 28.194 38.6359C29.509 35.9516 31.5821 34.0832 33.8888 32.5828C35.4373 31.5782 36.9282 28.8939 37.9712 27.6334C38.4415 27.0639 39.4461 27.1887 39.702 27.8797C41.3113 32.2116 42.2999 35.9228 41.3945 41.3585C44.0083 41.3489 44.7653 41.0386 47.2352 40.3859C47.8655 40.2195 48.4733 40.709 48.4318 41.3585C48.3038 43.3837 46.9546 45.9273 45.9779 47.5876C44.253 50.5199 41.9287 54.0278 34.7591 53.8423C31.4446 53.7559 27.2214 52.2906 25.2538 49.584C22.1217 45.2745 22.6208 39.2949 23.0303 35.926C23.1039 35.3214 23.7534 35.1166 24.2877 35.411L24.2908 35.4142Z" fill="#FFD02F"/>
</svg>
